0
SECTION
2
HEADER
9
$INSUNITS
70
4
9
$ACADVER
1
AC1014
9
$HANDSEED
5
FFFF
0
ENDSEC
0
SECTION
2
TABLES
0
TABLE
2
VPORT
5
8
100
AcDbSymbolTable
0
ENDTAB
0
TABLE
2
LTYPE
5
5
100
AcDbSymbolTable
0
LTYPE
5
14
100
AcDbSymbolTableRecord
100
AcDbLinetypeTableRecord
2
BYBLOCK
70
0
0
LTYPE
5
15
100
AcDbSymbolTableRecord
100
AcDbLinetypeTableRecord
2
BYLAYER
70
0
0
ENDTAB
0
TABLE
2
LAYER
5
2
100
AcDbSymbolTable
70
2
0
LAYER
5
50
100
AcDbSymbolTableRecord
100
AcDbLayerTableRecord
2
0
70
0
6
CONTINUOUS
0
ENDTAB
0
TABLE
2
STYLE
5
3
100
AcDbSymbolTable
70
1
0
STYLE
5
11
100
AcDbSymbolTableRecord
100
AcDbTextStyleTableRecord
2
STANDARD
70
0
0
ENDTAB
0
TABLE
2
VIEW
5
6
100
AcDbSymbolTable
70
0
0
ENDTAB
0
TABLE
2
UCS
5
7
100
AcDbSymbolTable
70
0
0
ENDTAB
0
TABLE
2
APPID
5
9
100
AcDbSymbolTable
70
2
0
APPID
5
12
100
AcDbSymbolTableRecord
100
AcDbRegAppTableRecord
2
ACAD
70
0
0
ENDTAB
0
TABLE
2
DIMSTYLE
5
A
100
AcDbSymbolTable
70
1
0
ENDTAB
0
TABLE
2
BLOCK_RECORD
5
1
100
AcDbSymbolTable
70
1
0
BLOCK_RECORD
5
1F
100
AcDbSymbolTableRecord
100
AcDbBlockTableRecord
2
*MODEL_SPACE
0
BLOCK_RECORD
5
1B
100
AcDbSymbolTableRecord
100
AcDbBlockTableRecord
2
*PAPER_SPACE
0
ENDTAB
0
ENDSEC
0
SECTION
2
BLOCKS
0
BLOCK
5
20
100
AcDbEntity
100
AcDbBlockBegin
2
*MODEL_SPACE
0
ENDBLK
5
21
100
AcDbEntity
100
AcDbBlockEnd
0
BLOCK
5
1C
100
AcDbEntity
100
AcDbBlockBegin
2
*PAPER_SPACE
0
ENDBLK
5
1D
100
AcDbEntity
100
AcDbBlockEnd
0
ENDSEC
0
SECTION
2
ENTITIES
0
LWPOLYLINE
5
100
100
AcDbEntity
8
0
100
AcDbPolyline
90
4
70
1
43
0.0
10
-27.838000000000001
20
-14.046000000000017
10
-8.9150000000000063
20
-14.046000000000021
10
-8.915000000000008
20
-24.460000000000019
10
-27.838000000000012
20
-24.460000000000015
0
CIRCLE
5
101
100
AcDbEntity
8
0
100
AcDbCircle
10
-65.634000000000015
20
-47.346000000000011
30
0
40
0.50799999999999723
210
0
220
-0
230
1
0
CIRCLE
5
102
100
AcDbEntity
8
0
100
AcDbCircle
10
-60.554000000000002
20
-47.346000000000011
30
0
40
0.50799999999999723
210
0
220
-0
230
1
0
CIRCLE
5
103
100
AcDbEntity
8
0
100
AcDbCircle
10
-55.474000000000018
20
-47.346000000000011
30
0
40
0.50799999999999723
210
0
220
-0
230
1
0
CIRCLE
5
104
100
AcDbEntity
8
0
100
AcDbCircle
10
-12.344000000000008
20
-19.253000000000021
30
0
40
1.651
210
0
220
-0
230
1
0
CIRCLE
5
105
100
AcDbEntity
8
0
100
AcDbCircle
10
-27.330000000000005
20
-19.253000000000014
30
0
40
0.50800000000000167
210
0
220
-0
230
1
0
CIRCLE
5
106
100
AcDbEntity
8
0
100
AcDbCircle
10
-39.170000000000009
20
-37.805000000000021
30
0
40
0.49999999999999817
210
0
220
-0
230
1
0
CIRCLE
5
107
100
AcDbEntity
8
0
100
AcDbCircle
10
-39.170000000000009
20
-42.885000000000019
30
0
40
0.49999999999999817
210
0
220
-0
230
1
0
CIRCLE
5
108
100
AcDbEntity
8
0
100
AcDbCircle
10
-39.170000000000009
20
-47.965000000000011
30
0
40
0.49999999999999817
210
0
220
-0
230
1
0
CIRCLE
5
109
100
AcDbEntity
8
0
100
AcDbCircle
10
-39.170000000000009
20
-53.045000000000016
30
0
40
0.49999999999999817
210
0
220
-0
230
1
0
CIRCLE
5
110
100
AcDbEntity
8
0
100
AcDbCircle
10
-39.170000000000009
20
-58.125000000000014
30
0
40
0.49999999999999817
210
0
220
-0
230
1
0
CIRCLE
5
111
100
AcDbEntity
8
0
100
AcDbCircle
10
-39.170000000000009
20
-63.20500000000002
30
0
40
0.49999999999999817
210
0
220
-0
230
1
0
CIRCLE
5
112
100
AcDbEntity
8
0
100
AcDbCircle
10
-39.170000000000016
20
-68.285000000000011
30
0
40
0.49999999999999817
210
0
220
-0
230
1
0
CIRCLE
5
113
100
AcDbEntity
8
0
100
AcDbCircle
10
-39.170000000000023
20
-73.365000000000023
30
0
40
0.49999999999999817
210
0
220
-0
230
1
0
CIRCLE
5
114
100
AcDbEntity
8
0
100
AcDbCircle
10
-14.400000000000009
20
-40.34500000000002
30
0
40
0.50000000000000033
210
0
220
-0
230
1
0
CIRCLE
5
115
100
AcDbEntity
8
0
100
AcDbCircle
10
-58.673999999999999
20
-43.38300000000001
30
0
40
0.1749999999999918
210
0
220
-0
230
1
0
CIRCLE
5
116
100
AcDbEntity
8
0
100
AcDbCircle
10
-14.400000000000013
20
-47.965000000000025
30
0
40
0.50000000000000033
210
0
220
-0
230
1
0
CIRCLE
5
117
100
AcDbEntity
8
0
100
AcDbCircle
10
-14.400000000000013
20
-53.04500000000003
30
0
40
0.50000000000000033
210
0
220
-0
230
1
0
CIRCLE
5
118
100
AcDbEntity
8
0
100
AcDbCircle
10
-14.400000000000015
20
-58.125000000000028
30
0
40
0.50000000000000033
210
0
220
-0
230
1
0
CIRCLE
5
119
100
AcDbEntity
8
0
100
AcDbCircle
10
-14.400000000000015
20
-63.205000000000027
30
0
40
0.50000000000000033
210
0
220
-0
230
1
0
CIRCLE
5
120
100
AcDbEntity
8
0
100
AcDbCircle
10
-14.400000000000016
20
-68.285000000000025
30
0
40
0.50000000000000033
210
0
220
-0
230
1
0
CIRCLE
5
121
100
AcDbEntity
8
0
100
AcDbCircle
10
-14.40000000000002
20
-73.365000000000023
30
0
40
0.50000000000000033
210
0
220
-0
230
1
0
CIRCLE
5
122
100
AcDbEntity
8
0
100
AcDbCircle
10
-87.629999999999995
20
-68.580000000000027
30
0
40
0.50000000000000699
210
0
220
-0
230
1
0
CIRCLE
5
123
100
AcDbEntity
8
0
100
AcDbCircle
10
-87.629999999999995
20
-63.500000000000028
30
0
40
0.50000000000000699
210
0
220
-0
230
1
0
CIRCLE
5
124
100
AcDbEntity
8
0
100
AcDbCircle
10
-114.68100000000001
20
-26.670000000000019
30
0
40
1.7500000000000069
210
0
220
-0
230
1
0
CIRCLE
5
125
100
AcDbEntity
8
0
100
AcDbCircle
10
-85.344000000000023
20
-20.193000000000019
30
0
40
1.5000000000000033
210
0
220
-0
230
1
0
CIRCLE
5
126
100
AcDbEntity
8
0
100
AcDbCircle
10
-84.455000000000013
20
-24.13000000000002
30
0
40
0.50000000000000699
210
0
220
-0
230
1
0
CIRCLE
5
127
100
AcDbEntity
8
0
100
AcDbCircle
10
-84.455000000000013
20
-29.210000000000022
30
0
40
0.50000000000000699
210
0
220
-0
230
1
0
CIRCLE
5
128
100
AcDbEntity
8
0
100
AcDbCircle
10
-84.455000000000013
20
-34.29000000000002
30
0
40
0.50000000000000699
210
0
220
-0
230
1
0
CIRCLE
5
129
100
AcDbEntity
8
0
100
AcDbCircle
10
-43.710000000000008
20
-5.0800000000000187
30
0
40
0.49999999999999817
210
0
220
-0
230
1
0
CIRCLE
5
130
100
AcDbEntity
8
0
100
AcDbCircle
10
-37.427000000000007
20
-75.120000000000019
30
0
40
0.17499999999999624
210
0
220
-0
230
1
0
CIRCLE
5
131
100
AcDbEntity
8
0
100
AcDbCircle
10
-40.210000000000008
20
-5.0800000000000187
30
0
40
0.49999999999999817
210
0
220
-0
230
1
0
CIRCLE
5
132
100
AcDbEntity
8
0
100
AcDbCircle
10
-84.455000000000013
20
-31.750000000000021
30
0
40
0.50000000000000699
210
0
220
-0
230
1
0
CIRCLE
5
133
100
AcDbEntity
8
0
100
AcDbCircle
10
-84.455000000000013
20
-26.670000000000019
30
0
40
0.50000000000000699
210
0
220
-0
230
1
0
CIRCLE
5
134
100
AcDbEntity
8
0
100
AcDbCircle
10
-85.344000000000023
20
-38.227000000000018
30
0
40
1.5000000000000033
210
0
220
-0
230
1
0
CIRCLE
5
135
100
AcDbEntity
8
0
100
AcDbCircle
10
-115.316
20
-20.193000000000019
30
0
40
1.5000000000000033
210
0
220
-0
230
1
0
CIRCLE
5
136
100
AcDbEntity
8
0
100
AcDbCircle
10
-115.316
20
-38.227000000000018
30
0
40
1.5000000000000033
210
0
220
-0
230
1
0
CIRCLE
5
137
100
AcDbEntity
8
0
100
AcDbCircle
10
-87.629999999999995
20
-66.04000000000002
30
0
40
0.50000000000000699
210
0
220
-0
230
1
0
CIRCLE
5
138
100
AcDbEntity
8
0
100
AcDbCircle
10
-99.060000000000002
20
-66.04000000000002
30
0
40
1.6000000000000012
210
0
220
-0
230
1
0
CIRCLE
5
139
100
AcDbEntity
8
0
100
AcDbCircle
10
-14.40000000000002
20
-70.825000000000017
30
0
40
0.50000000000000033
210
0
220
-0
230
1
0
CIRCLE
5
140
100
AcDbEntity
8
0
100
AcDbCircle
10
-14.400000000000016
20
-65.745000000000033
30
0
40
0.50000000000000033
210
0
220
-0
230
1
0
CIRCLE
5
141
100
AcDbEntity
8
0
100
AcDbCircle
10
-14.400000000000015
20
-60.66500000000002
30
0
40
0.50000000000000033
210
0
220
-0
230
1
0
CIRCLE
5
142
100
AcDbEntity
8
0
100
AcDbCircle
10
-14.400000000000015
20
-55.585000000000022
30
0
40
0.50000000000000033
210
0
220
-0
230
1
0
CIRCLE
5
143
100
AcDbEntity
8
0
100
AcDbCircle
10
-14.400000000000013
20
-50.505000000000024
30
0
40
0.50000000000000033
210
0
220
-0
230
1
0
CIRCLE
5
144
100
AcDbEntity
8
0
100
AcDbCircle
10
-14.400000000000011
20
-45.425000000000026
30
0
40
0.50000000000000033
210
0
220
-0
230
1
0
CIRCLE
5
145
100
AcDbEntity
8
0
100
AcDbCircle
10
-14.400000000000011
20
-42.885000000000026
30
0
40
0.50000000000000033
210
0
220
-0
230
1
0
CIRCLE
5
146
100
AcDbEntity
8
0
100
AcDbCircle
10
-14.400000000000009
20
-37.805000000000028
30
0
40
0.50000000000000033
210
0
220
-0
230
1
0
CIRCLE
5
147
100
AcDbEntity
8
0
100
AcDbCircle
10
-39.170000000000023
20
-70.825000000000017
30
0
40
0.49999999999999817
210
0
220
-0
230
1
0
CIRCLE
5
148
100
AcDbEntity
8
0
100
AcDbCircle
10
-39.170000000000016
20
-65.745000000000019
30
0
40
0.49999999999999817
210
0
220
-0
230
1
0
CIRCLE
5
149
100
AcDbEntity
8
0
100
AcDbCircle
10
-39.170000000000009
20
-60.665000000000013
30
0
40
0.49999999999999817
210
0
220
-0
230
1
0
CIRCLE
5
150
100
AcDbEntity
8
0
100
AcDbCircle
10
-39.170000000000009
20
-55.585000000000015
30
0
40
0.49999999999999817
210
0
220
-0
230
1
0
CIRCLE
5
151
100
AcDbEntity
8
0
100
AcDbCircle
10
-39.170000000000009
20
-50.50500000000001
30
0
40
0.49999999999999817
210
0
220
-0
230
1
0
CIRCLE
5
152
100
AcDbEntity
8
0
100
AcDbCircle
10
-39.170000000000009
20
-45.425000000000011
30
0
40
0.49999999999999817
210
0
220
-0
230
1
0
CIRCLE
5
153
100
AcDbEntity
8
0
100
AcDbCircle
10
-39.170000000000002
20
-40.345000000000013
30
0
40
0.49999999999999817
210
0
220
-0
230
1
0
CIRCLE
5
154
100
AcDbEntity
8
0
100
AcDbCircle
10
-27.330000000000005
20
-16.713000000000019
30
0
40
0.50800000000000167
210
0
220
-0
230
1
0
CIRCLE
5
155
100
AcDbEntity
8
0
100
AcDbCircle
10
-27.330000000000009
20
-21.793000000000013
30
0
40
0.50800000000000167
210
0
220
-0
230
1
0
CIRCLE
5
156
100
AcDbEntity
8
0
100
AcDbCircle
10
-52.933999999999997
20
-47.346000000000011
30
0
40
0.50799999999999723
210
0
220
-0
230
1
0
CIRCLE
5
157
100
AcDbEntity
8
0
100
AcDbCircle
10
-58.01400000000001
20
-47.346000000000011
30
0
40
0.50799999999999723
210
0
220
-0
230
1
0
CIRCLE
5
158
100
AcDbEntity
8
0
100
AcDbCircle
10
-63.094000000000023
20
-47.346000000000011
30
0
40
0.50799999999999723
210
0
220
-0
230
1
0
CIRCLE
5
159
100
AcDbEntity
8
0
100
AcDbCircle
10
-65.634000000000015
20
-61.316000000000017
30
0
40
1.6650000000000007
210
0
220
-0
230
1
0
CIRCLE
5
160
100
AcDbEntity
8
0
100
AcDbCircle
10
-115
20
-5.0000000000000231
30
0
40
1.7500000000000069
210
0
220
-0
230
1
0
CIRCLE
5
161
100
AcDbEntity
8
0
100
AcDbCircle
10
-115
20
-80.000000000000014
30
0
40
1.7500000000000069
210
0
220
-0
230
1
0
CIRCLE
5
162
100
AcDbEntity
8
0
100
AcDbCircle
10
-5.0000000000000089
20
-80
30
0
40
1.7500000000000002
210
0
220
-0
230
1
0
CIRCLE
5
163
100
AcDbEntity
8
0
100
AcDbCircle
10
-5.0000000000000124
20
-5.0000000000000178
30
0
40
1.7500000000000002
210
0
220
-0
230
1
0
LWPOLYLINE
5
164
100
AcDbEntity
8
0
100
AcDbPolyline
90
4
70
1
43
0.0
10
-1.3322676295501878e-14
20
-1.7763568394002505e-14
10
0
20
-88.570000000000007
10
-120.63000000000001
20
-88.570000000000007
10
-120.63000000000001
20
-2.4459878567029136e-14
0
ENDSEC
0
SECTION
2
OBJECTS
0
DICTIONARY
5
C
100
AcDbDictionary
3
ACAD_GROUP
350
D
3
ACAD_MLINESTYLE
350
17
0
DICTIONARY
5
D
100
AcDbDictionary
0
DICTIONARY
5
1A
330
C
100
AcDbDictionary
0
DICTIONARY
5
17
100
AcDbDictionary
0
ENDSEC
0
EOF
